<svg width="57" height="56" viewBox="0 0 57 56" fill="none" xmlns="http://www.w3.org/2000/svg">
<rect x="0.166748" width="56" height="56" rx="11" fill="#F6F6F6"/>
<path d="M37.6368 27.185L36.6068 25.755C36.3763 25.4312 36.0719 25.1671 35.7188 24.9844C35.3658 24.8018 34.9743 24.706 34.5768 24.705H30.1968V22.565C30.1968 21.902 29.9334 21.2661 29.4646 20.7972C28.9957 20.3284 28.3598 20.065 27.6968 20.065H20.7268C20.0643 20.0668 19.4295 20.3308 18.9611 20.7993C18.4926 21.2677 18.2287 21.9025 18.2268 22.565V32.505C18.2268 32.9028 18.3848 33.2844 18.6661 33.5657C18.9475 33.847 19.329 34.005 19.7268 34.005H20.9468C21.0223 34.54 21.2885 35.0298 21.6964 35.3842C22.1043 35.7385 22.6265 35.9337 23.1668 35.9337C23.7071 35.9337 24.2293 35.7385 24.6372 35.3842C25.0451 35.0298 25.3113 34.54 25.3868 34.005H30.9468C31.0223 34.54 31.2885 35.0298 31.6964 35.3842C32.1043 35.7385 32.6265 35.9337 33.1668 35.9337C33.7071 35.9337 34.2293 35.7385 34.6372 35.3842C35.0451 35.0298 35.3113 34.54 35.3868 34.005H36.6068C37.0046 34.005 37.3862 33.847 37.6675 33.5657C37.9488 33.2844 38.1068 32.9028 38.1068 32.505V28.635C38.1044 28.1146 37.9401 27.6079 37.6368 27.185ZM23.1668 34.935C22.9196 34.935 22.6779 34.8617 22.4723 34.7243C22.2668 34.587 22.1066 34.3918 22.012 34.1634C21.9173 33.9349 21.8926 33.6836 21.9408 33.4411C21.9891 33.1987 22.1081 32.9759 22.2829 32.8011C22.4577 32.6263 22.6805 32.5073 22.9229 32.459C23.1654 32.4108 23.4168 32.4355 23.6452 32.5302C23.8736 32.6248 24.0688 32.785 24.2061 32.9905C24.3435 33.1961 24.4168 33.4378 24.4168 33.685C24.4168 34.0165 24.2851 34.3345 24.0507 34.5689C23.8163 34.8033 23.4983 34.935 23.1668 34.935ZM29.1968 33.005H25.3168C25.1712 32.5491 24.8845 32.1513 24.498 31.8691C24.1115 31.5868 23.6454 31.4347 23.1668 31.4347C22.6882 31.4347 22.2221 31.5868 21.8356 31.8691C21.4491 32.1513 21.1624 32.5491 21.0168 33.005H19.7268C19.5942 33.005 19.467 32.9523 19.3733 32.8586C19.2795 32.7648 19.2268 32.6376 19.2268 32.505V22.565C19.2268 22.1672 19.3848 21.7856 19.6661 21.5043C19.9475 21.223 20.329 21.065 20.7268 21.065H27.6968C28.0946 21.065 28.4762 21.223 28.7575 21.5043C29.0388 21.7856 29.1968 22.1672 29.1968 22.565V33.005ZM33.1668 34.935C32.9196 34.935 32.6779 34.8617 32.4723 34.7243C32.2668 34.587 32.1066 34.3918 32.012 34.1634C31.9173 33.9349 31.8926 33.6836 31.9408 33.4411C31.9891 33.1987 32.1081 32.9759 32.2829 32.8011C32.4577 32.6263 32.6805 32.5073 32.9229 32.459C33.1654 32.4108 33.4168 32.4355 33.6452 32.5302C33.8736 32.6248 34.0688 32.785 34.2061 32.9905C34.3435 33.1961 34.4168 33.4378 34.4168 33.685C34.4168 34.0165 34.2851 34.3345 34.0507 34.5689C33.8163 34.8033 33.4983 34.935 33.1668 34.935ZM37.1068 32.505C37.1068 32.6376 37.0541 32.7648 36.9604 32.8586C36.8666 32.9523 36.7394 33.005 36.6068 33.005H35.3168C35.1712 32.5491 34.8845 32.1513 34.498 31.8691C34.1115 31.5868 33.6454 31.4347 33.1668 31.4347C32.6882 31.4347 32.2221 31.5868 31.8356 31.8691C31.4491 32.1513 31.1624 32.5491 31.0168 33.005H30.1968V25.705H34.5768C34.8154 25.7066 35.0502 25.7645 35.2622 25.874C35.4742 25.9834 35.6574 26.1414 35.7968 26.335L36.8268 27.765C37.0068 28.0196 37.1045 28.3232 37.1068 28.635V32.505Z" fill="#797979"/>
<path d="M34.1958 28.205H32.1958C32.0632 28.205 31.936 28.1523 31.8422 28.0586C31.7485 27.9648 31.6958 27.8376 31.6958 27.705C31.6958 27.5724 31.7485 27.4452 31.8422 27.3515C31.936 27.2577 32.0632 27.205 32.1958 27.205H34.1958C34.3284 27.205 34.4556 27.2577 34.5494 27.3515C34.6431 27.4452 34.6958 27.5724 34.6958 27.705C34.6958 27.8376 34.6431 27.9648 34.5494 28.0586C34.4556 28.1523 34.3284 28.205 34.1958 28.205Z" fill="#797979"/>
</svg>
