<svg width="57" height="56" viewBox="0 0 57 56" fill="none" xmlns="http://www.w3.org/2000/svg">
<rect x="0.833496" width="56" height="56" rx="11" fill="#F6F6F6"/>
<path d="M27.6236 31.17C27.4236 31.17 27.2336 31.09 27.0936 30.95L24.6736 28.53C24.3836 28.24 24.3836 27.76 24.6736 27.47C24.9636 27.18 25.4436 27.18 25.7336 27.47L27.6236 29.36L31.9236 25.06C32.2136 24.77 32.6936 24.77 32.9836 25.06C33.2736 25.35 33.2736 25.83 32.9836 26.12L28.1536 30.95C28.0136 31.09 27.8236 31.17 27.6236 31.17Z" fill="#797979"/>
<path d="M28.8334 38.75C28.2034 38.75 27.5734 38.54 27.0834 38.12L25.5034 36.76C25.3434 36.62 24.9434 36.48 24.7334 36.48H23.0134C21.5334 36.48 20.3334 35.28 20.3334 33.8V32.09C20.3334 31.88 20.1934 31.49 20.0534 31.33L18.7034 29.74C17.8834 28.77 17.8834 27.24 18.7034 26.27L20.0534 24.68C20.1934 24.52 20.3334 24.13 20.3334 23.92V22.2C20.3334 20.72 21.5334 19.52 23.0134 19.52H24.7434C24.9534 19.52 25.3534 19.37 25.5134 19.24L27.0934 17.88C28.0734 17.04 29.6034 17.04 30.5834 17.88L32.1634 19.24C32.3234 19.38 32.7234 19.52 32.9334 19.52H34.6334C36.1134 19.52 37.3134 20.72 37.3134 22.2V23.9C37.3134 24.11 37.4634 24.51 37.6034 24.67L38.9634 26.25C39.8034 27.23 39.8034 28.76 38.9634 29.74L37.6034 31.32C37.4634 31.48 37.3134 31.88 37.3134 32.09V33.79C37.3134 35.27 36.1134 36.47 34.6334 36.47H32.9334C32.7234 36.47 32.3234 36.62 32.1634 36.75L30.5834 38.11C30.0934 38.54 29.4634 38.75 28.8334 38.75ZM23.0134 21.02C22.3634 21.02 21.8334 21.55 21.8334 22.2V23.91C21.8334 24.48 21.5634 25.21 21.1934 25.64L19.8434 27.23C19.4934 27.64 19.4934 28.35 19.8434 28.76L21.1934 30.35C21.5634 30.79 21.8334 31.51 21.8334 32.08V33.79C21.8334 34.44 22.3634 34.97 23.0134 34.97H24.7434C25.3234 34.97 26.0534 35.24 26.4934 35.62L28.0734 36.98C28.4834 37.33 29.2034 37.33 29.6134 36.98L31.1934 35.62C31.6334 35.25 32.3634 34.97 32.9434 34.97H34.6434C35.2934 34.97 35.8234 34.44 35.8234 33.79V32.09C35.8234 31.51 36.0934 30.78 36.4734 30.34L37.8334 28.76C38.1834 28.35 38.1834 27.63 37.8334 27.22L36.4734 25.64C36.0934 25.2 35.8234 24.47 35.8234 23.89V22.2C35.8234 21.55 35.2934 21.02 34.6434 21.02H32.9434C32.3634 21.02 31.6334 20.75 31.1934 20.37L29.6134 19.01C29.2034 18.66 28.4834 18.66 28.0734 19.01L26.4934 20.38C26.0534 20.75 25.3134 21.02 24.7434 21.02H23.0134Z" fill="#797979"/>
</svg>
