<svg width="25" height="24" viewBox="0 0 25 24" fill="none" xmlns="http://www.w3.org/2000/svg">
<path d="M9.92236 0.75C9.21961 0.75 8.98486 0.90825 8.98486 1.6875V2.39025H6.87511C5.48986 2.39025 5.23486 2.646 5.23486 4.0305V21.609C5.23486 22.9942 5.49061 23.2493 6.87511 23.2493H18.1251C19.5104 23.2493 19.7654 22.9935 19.7654 21.609V4.0305C19.7654 2.64525 19.5096 2.39025 18.1251 2.39025H16.0154V1.6875C16.0154 0.909 15.7814 0.75 15.0779 0.75H9.92236ZM6.87511 5.67225C6.87511 3.79725 6.64111 4.032 8.51536 4.032C9.45286 4.032 15.7814 4.032 16.4841 4.032C18.3591 4.032 18.1244 3.798 18.1244 5.67225C18.1244 6.60975 18.1244 19.032 18.1244 19.9695C18.1244 21.8445 18.3584 21.6097 16.4841 21.6097C15.5466 21.6097 9.45286 21.6097 8.51536 21.6097C6.64036 21.6097 6.87511 21.8438 6.87511 19.9695C6.87511 19.0312 6.87511 6.60975 6.87511 5.67225ZM8.04661 8.9535H16.9529C17.2116 8.9535 17.4216 9.1635 17.4216 9.42225V12.0007C17.4216 12.2595 17.2116 12.4695 16.9529 12.4695H8.04661C7.78786 12.4695 7.57786 12.2595 7.57786 12.0007V9.42225C7.57786 9.1635 7.78786 8.9535 8.04661 8.9535ZM8.04661 13.1722H16.9529C17.2116 13.1722 17.4216 13.3822 17.4216 13.641V16.2195C17.4216 16.4782 17.2116 16.6882 16.9529 16.6882H8.04661C7.78786 16.6882 7.57786 16.4782 7.57786 16.2195V13.641C7.57786 13.3822 7.78786 13.1722 8.04661 13.1722ZM8.04661 17.391H16.9529C17.2116 17.391 17.4216 17.601 17.4216 17.8597V20.4382C17.4216 20.697 17.2116 20.907 16.9529 20.907H8.04661C7.78786 20.907 7.57786 20.697 7.57786 20.4382V17.8597C7.57786 17.601 7.78786 17.391 8.04661 17.391Z" fill="#4E4E4E"/>
</svg>
