<svg width="25" height="24" viewBox="0 0 25 24" fill="none" xmlns="http://www.w3.org/2000/svg">
<path fill-rule="evenodd" clip-rule="evenodd" d="M10.2778 21H14.7222C17.8433 21 19.4038 21 20.5248 20.2646C21.01 19.9462 21.4267 19.5371 21.751 19.0607C22.5 17.9601 22.5 16.4279 22.5 13.3636C22.5 10.2994 22.5 8.76721 21.751 7.6666C21.4267 7.19014 21.01 6.78104 20.5248 6.46268C19.8044 5.99013 18.9027 5.82123 17.522 5.76086C16.8631 5.76086 16.2959 5.27068 16.1667 4.63636C15.9728 3.68489 15.1219 3 14.1337 3H10.8663C9.87805 3 9.02715 3.68489 8.83333 4.63636C8.70412 5.27068 8.13685 5.76086 7.478 5.76086C6.09733 5.82123 5.19555 5.99013 4.47524 6.46268C3.98995 6.78104 3.57328 7.19014 3.24902 7.6666C2.5 8.76721 2.5 10.2994 2.5 13.3636C2.5 16.4279 2.5 17.9601 3.24902 19.0607C3.57328 19.5371 3.98995 19.9462 4.47524 20.2646C5.59624 21 7.15675 21 10.2778 21ZM12.5 9.27273C10.1988 9.27273 8.33333 11.1043 8.33333 13.3636C8.33333 15.623 10.1988 17.4545 12.5 17.4545C14.8012 17.4545 16.6667 15.623 16.6667 13.3636C16.6667 11.1043 14.8012 9.27273 12.5 9.27273ZM12.5 10.9091C11.1193 10.9091 10 12.008 10 13.3636C10 14.7192 11.1193 15.8182 12.5 15.8182C13.8807 15.8182 15 14.7192 15 13.3636C15 12.008 13.8807 10.9091 12.5 10.9091ZM17.2222 10.0909C17.2222 9.63904 17.5953 9.27273 18.0556 9.27273H19.1667C19.6269 9.27273 20 9.63904 20 10.0909C20 10.5428 19.6269 10.9091 19.1667 10.9091H18.0556C17.5953 10.9091 17.2222 10.5428 17.2222 10.0909Z" fill="#4E4E4E"/>
</svg>
