<svg width="25" height="24" viewBox="0 0 25 24" fill="none" xmlns="http://www.w3.org/2000/svg">
<path fill-rule="evenodd" clip-rule="evenodd" d="M12.5 3C12.8853 3 13.1977 3.31236 13.1977 3.69767V6.48884C13.7084 6.48991 14.1717 6.49342 14.5932 6.50495L14.593 6.48837V3.69767C14.593 3.31236 14.9054 3 15.2907 3C15.676 3 15.9884 3.31236 15.9884 3.69767V6.48837C15.9884 6.52487 15.9856 6.56072 15.9802 6.5957C16.9162 6.71067 17.5648 6.94879 18.058 7.44198C18.5512 7.93517 18.7893 8.58381 18.9043 9.51984C18.9393 9.51443 18.9751 9.51163 19.0116 9.51163H21.8023C22.1876 9.51163 22.5 9.82399 22.5 10.2093C22.5 10.5946 22.1876 10.907 21.8023 10.907H19.0116L18.995 10.9068C19.0066 11.3283 19.0106 11.7916 19.0116 12.3023H21.8023C22.1876 12.3023 22.5 12.6147 22.5 13C22.5 13.3853 22.1876 13.6977 21.8023 13.6977H19.0112C19.0101 14.2084 19.0066 14.6717 18.995 15.0932L19.0116 15.093H21.8023C22.1876 15.093 22.5 15.4054 22.5 15.7907C22.5 16.176 22.1876 16.4884 21.8023 16.4884H19.0116C18.9751 16.4884 18.9393 16.4856 18.9043 16.4802C18.7893 17.4162 18.5512 18.0648 18.058 18.558C17.5648 19.0512 16.9162 19.2893 15.9802 19.4043C15.9856 19.4393 15.9884 19.4751 15.9884 19.5116V22.3023C15.9884 22.6876 15.676 23 15.2907 23C14.9054 23 14.593 22.6876 14.593 22.3023V19.5116L14.5932 19.495C14.1717 19.5066 13.7084 19.5106 13.1977 19.5116V22.3023C13.1977 22.6876 12.8853 23 12.5 23C12.1147 23 11.8023 22.6876 11.8023 22.3023V19.5112C11.2916 19.5101 10.8283 19.5066 10.4068 19.495L10.407 19.5116V22.3023C10.407 22.6876 10.0946 23 9.7093 23C9.32399 23 9.01163 22.6876 9.01163 22.3023V19.5116C9.01163 19.4751 9.01443 19.4393 9.01984 19.4043C8.08381 19.2893 7.43517 19.0512 6.94198 18.558C6.44879 18.0648 6.21067 17.4162 6.0957 16.4802C6.06071 16.4856 6.02487 16.4884 5.98837 16.4884H3.19767C2.81236 16.4884 2.5 16.176 2.5 15.7907C2.5 15.4054 2.81236 15.093 3.19767 15.093H5.98837L6.00495 15.0932C5.99342 14.6717 5.98944 14.2084 5.98837 13.6977H3.19767C2.81236 13.6977 2.5 13.3853 2.5 13C2.5 12.6147 2.81236 12.3023 3.19767 12.3023H5.98884C5.98991 11.7916 5.99342 11.3283 6.00495 10.9068L5.98837 10.907H3.19767C2.81236 10.907 2.5 10.5946 2.5 10.2093C2.5 9.82399 2.81236 9.51163 3.19767 9.51163H5.98837C6.02487 9.51163 6.06071 9.51443 6.0957 9.51984C6.21067 8.58381 6.44879 7.93517 6.94198 7.44198C7.43517 6.94879 8.08381 6.71067 9.01984 6.5957C9.01443 6.56072 9.01163 6.52487 9.01163 6.48837V3.69767C9.01163 3.31236 9.32399 3 9.7093 3C10.0946 3 10.407 3.31236 10.407 3.69767V6.48837L10.4068 6.50495C10.8283 6.49342 11.2916 6.48944 11.8023 6.48837V3.69767C11.8023 3.31236 12.1147 3 12.5 3ZM11.5238 8.5814C10.9054 8.58136 10.3725 8.58133 9.94573 8.63871C9.48839 8.70019 9.05001 8.83885 8.69443 9.19443C8.33885 9.55001 8.20019 9.98839 8.13871 10.4457C8.08133 10.8725 8.08136 11.4054 8.0814 12.0238V13.9762C8.08136 14.5946 8.08133 15.1275 8.13871 15.5543C8.20019 16.0116 8.33885 16.45 8.69443 16.8056C9.05001 17.1612 9.48839 17.2998 9.94573 17.3613C10.3725 17.4187 10.9054 17.4186 11.5238 17.4186H13.4762C14.0946 17.4186 14.6275 17.4187 15.0543 17.3613C15.5116 17.2998 15.95 17.1612 16.3056 16.8056C16.6612 16.45 16.7998 16.0116 16.8613 15.5543C16.9187 15.1275 16.9186 14.5946 16.9186 13.9762V12.0238C16.9186 11.4054 16.9187 10.8725 16.8613 10.4457C16.7998 9.98839 16.6612 9.55001 16.3056 9.19443C15.95 8.83885 15.5116 8.70019 15.0543 8.63871C14.6275 8.58133 14.0947 8.58136 13.4762 8.5814H11.5238Z" fill="#4E4E4E"/>
<path opacity="0.5" d="M9.68091 10.1809C9.73402 10.1278 9.82886 10.0621 10.1315 10.0214C10.4542 9.97804 10.8921 9.97656 11.5696 9.97656H13.4301C14.1075 9.97656 14.5455 9.97804 14.8682 10.0214C15.1708 10.0621 15.2656 10.1278 15.3187 10.1809C15.3718 10.234 15.4375 10.3289 15.4782 10.6315C15.5216 10.9542 15.5231 11.3921 15.5231 12.0696V13.9301C15.5231 14.6075 15.5216 15.0455 15.4782 15.3682C15.4375 15.6708 15.3718 15.7656 15.3187 15.8187C15.2656 15.8718 15.1708 15.9375 14.8682 15.9782C14.5455 16.0216 14.1075 16.0231 13.4301 16.0231H11.5696C10.8921 16.0231 10.4542 16.0216 10.1315 15.9782C9.82886 15.9375 9.73402 15.8718 9.68091 15.8187C9.6278 15.7656 9.56211 15.6708 9.52143 15.3682C9.47804 15.0455 9.47656 14.6075 9.47656 13.9301V12.0696C9.47656 11.3921 9.47804 10.9542 9.52143 10.6315C9.56211 10.3289 9.6278 10.234 9.68091 10.1809Z" fill="#4E4E4E"/>
</svg>
