<svg width="14" height="20" viewBox="0 0 14 20" fill="none" xmlns="http://www.w3.org/2000/svg">
<path fill-rule="evenodd" clip-rule="evenodd" d="M1.60741 1.25032C0.764503 2.09322 0.764552 3.44979 0.764502 6.16305L0.764503 13.8371C0.764503 16.5504 0.764502 17.907 1.60744 18.7499C2.45032 19.5928 3.8069 19.5928 6.52014 19.5928L7.4794 19.5928C10.1926 19.5928 11.5492 19.5928 12.3921 18.7499C13.235 17.907 13.235 16.5504 13.235 13.8372L13.235 6.16306C13.235 3.4498 13.235 2.09324 12.3921 1.25032C11.5492 0.407432 10.1926 0.407432 7.47939 0.407432L6.52012 0.407432C3.80691 0.407432 2.45029 0.407432 1.60741 1.25032ZM9.39758 4.03565C9.81179 4.03565 10.1476 3.69986 10.1476 3.28565C10.1476 2.87143 9.81179 2.53565 9.39758 2.53565L4.60124 2.53564C4.18703 2.53565 3.85124 2.87143 3.85124 3.28564C3.85124 3.69986 4.18703 4.03565 4.60124 4.03564L9.39758 4.03565ZM6.9992 16.7155C7.79392 16.7154 8.43809 16.0712 8.43817 15.2765C8.43817 14.4819 7.79392 13.8376 6.99927 13.8376C6.20456 13.8377 5.56038 14.4819 5.56031 15.2766C5.56031 16.0712 6.20456 16.7155 6.9992 16.7155Z" fill="#4E4E4E"/>
</svg>
