<svg width="57" height="56" viewBox="0 0 57 56" fill="none" xmlns="http://www.w3.org/2000/svg">
<rect x="0.5" width="56" height="56" rx="11" fill="#F6F6F6"/>
<path fill-rule="evenodd" clip-rule="evenodd" d="M23.9353 17.25H33.0647C33.6346 17.25 34.1186 17.25 34.5185 17.2913C34.9443 17.3353 35.3378 17.4309 35.7096 17.6607C36.0814 17.8905 36.3429 18.1997 36.5727 18.5609C36.7885 18.9001 37.0049 19.333 37.2598 19.8428L37.2763 19.8757C37.286 19.8952 37.2949 19.915 37.3029 19.9353L38.7065 23.4834C38.8735 23.9056 39.0586 24.4323 39.1127 24.9713C39.1681 25.5226 39.0921 26.1541 38.6601 26.7019C38.3068 27.15 37.8155 27.4863 37.25 27.6463V37.25H38.5C38.9142 37.25 39.25 37.5858 39.25 38C39.25 38.4142 38.9142 38.75 38.5 38.75H18.5C18.0858 38.75 17.75 38.4142 17.75 38C17.75 37.5858 18.0858 37.25 18.5 37.25H19.75V27.6464C19.1845 27.4863 18.6931 27.15 18.3397 26.7019C17.9078 26.1541 17.8318 25.5226 17.8872 24.9713C17.9413 24.4323 18.1264 23.9056 18.2934 23.4834L19.697 19.9353C19.705 19.915 19.7139 19.8952 19.7236 19.8757L19.7401 19.8428C19.995 19.333 20.2114 18.9001 20.4272 18.5609C20.657 18.1997 20.9185 17.8905 21.2903 17.6607C21.6621 17.4309 22.0556 17.3353 22.4814 17.2913C22.8813 17.25 23.3653 17.25 23.9353 17.25ZM34.4999 26.8875C34.8359 27.2433 35.2658 27.5096 35.75 27.6465V37.25H31.75V34.4678C31.75 34.028 31.75 33.6486 31.7218 33.3374C31.692 33.0082 31.6259 32.6822 31.4486 32.375C31.2511 32.033 30.967 31.7489 30.625 31.5514C30.3178 31.3741 29.9918 31.308 29.6627 31.2782C29.3514 31.25 28.972 31.25 28.5322 31.25H28.4678C28.028 31.25 27.6486 31.25 27.3373 31.2782C27.0082 31.308 26.6822 31.3741 26.375 31.5514C26.033 31.7489 25.7489 32.033 25.5514 32.375C25.3741 32.6822 25.308 33.0082 25.2782 33.3374C25.25 33.6486 25.25 34.028 25.25 34.4677V37.25H21.25V27.6465C21.7341 27.5095 22.164 27.2433 22.4999 26.8875C23.0013 27.4186 23.7119 27.75 24.4999 27.75C25.2879 27.75 25.9985 27.4186 26.4999 26.8875C27.0013 27.4186 27.7119 27.75 28.4999 27.75C29.2879 27.75 29.9985 27.4186 30.4999 26.8875C31.0013 27.4186 31.7119 27.75 32.4999 27.75C33.2879 27.75 33.9985 27.4186 34.4999 26.8875ZM26.75 37.25H30.25V34.5C30.25 34.0189 30.2493 33.7082 30.2279 33.4727C30.2075 33.2476 30.1731 33.1659 30.1495 33.125C30.0837 33.011 29.989 32.9163 29.875 32.8505C29.8341 32.8269 29.7524 32.7925 29.5273 32.7721C29.2918 32.7507 28.9811 32.75 28.5 32.75C28.0189 32.75 27.7082 32.7507 27.4727 32.7721C27.2476 32.7925 27.1659 32.8269 27.125 32.8505C27.011 32.9163 26.9163 33.011 26.8505 33.125C26.8269 33.1659 26.7925 33.2476 26.7721 33.4727C26.7507 33.7082 26.75 34.0189 26.75 34.5V37.25ZM23.2499 25C23.2499 25.6904 23.8096 26.25 24.4999 26.25C25.1903 26.25 25.7499 25.6904 25.7499 25C25.7499 24.5858 26.0857 24.25 26.4999 24.25C26.9141 24.25 27.2499 24.5858 27.2499 25C27.2499 25.6904 27.8096 26.25 28.4999 26.25C29.1903 26.25 29.7499 25.6904 29.7499 25C29.7499 24.5858 30.0857 24.25 30.4999 24.25C30.9141 24.25 31.2499 24.5858 31.2499 25C31.2499 25.6904 31.8096 26.25 32.4999 26.25C33.1903 26.25 33.7499 25.6904 33.7499 25C33.7499 24.5858 34.0857 24.25 34.4999 24.25C34.9141 24.25 35.2499 24.5858 35.2499 25C35.2499 25.6904 35.8096 26.25 36.4999 26.25C36.8979 26.25 37.2522 26.0649 37.4823 25.7731C37.5962 25.6286 37.6513 25.4309 37.6202 25.1211C37.5879 24.799 37.469 24.4328 37.3117 24.0352L35.9201 20.5174C35.6524 19.982 35.4735 19.6275 35.3071 19.3661C35.1472 19.1147 35.0325 19.0056 34.921 18.9367C34.8095 18.8678 34.6606 18.814 34.3642 18.7834C34.0505 18.7509 33.6446 18.75 33.0278 18.75H23.9721C23.3553 18.75 22.9494 18.7509 22.6357 18.7834C22.3393 18.814 22.1904 18.8678 22.0789 18.9367C21.9674 19.0056 21.8527 19.1147 21.6928 19.3661C21.5265 19.6275 21.3475 19.982 21.0798 20.5174L19.6882 24.0352C19.5309 24.4328 19.412 24.799 19.3797 25.1212C19.3486 25.431 19.4037 25.6286 19.5176 25.7731C19.7477 26.0649 20.102 26.25 20.4999 26.25C21.1903 26.25 21.7499 25.6904 21.7499 25C21.7499 24.5858 22.0857 24.25 22.4999 24.25C22.9141 24.25 23.2499 24.5858 23.2499 25Z" fill="#797979"/>
</svg>
